<?xml version="1.0" standalone="no"?>
<!DOCTYPE svg PUBLIC "-//W3C//DTD SVG 20010904//EN"
 "http://www.w3.org/TR/2001/REC-SVG-20010904/DTD/svg10.dtd">
<svg version="1.0" xmlns="http://www.w3.org/2000/svg"
 width="4501.000000pt" height="4034.000000pt" viewBox="0 0 4501.000000 4034.000000"
 preserveAspectRatio="xMidYMid meet">

<g transform="translate(0.000000,4034.000000) scale(0.100000,-0.100000)"
fill="#000000" stroke="none">
<path d="M30234 26381 c-68 -25 -113 -59 -120 -91 -3 -14 -7 -30 -9 -37 -3 -9
26 -13 108 -16 62 -1 -30 -4 -204 -5 -244 -2 -319 -5 -327 -15 -7 -8 -13 -106
-17 -252 -3 -132 -12 -382 -20 -555 -28 -612 -37 -972 -26 -983 12 -12 4707
-12 4806 0 85 9 109 36 154 171 36 105 28 158 -44 322 -45 100 -83 160 -144
224 -140 146 -695 523 -1066 724 -213 115 -361 180 -585 256 -189 64 -200 66
-360 81 -206 18 -895 35 -1393 35 l-377 0 -11 28 c-20 53 -81 100 -154 119
-61 15 -162 13 -211 -6z"/>
<path d="M20430 26239 c-877 -4 -1506 -11 -1600 -17 -755 -54 -911 -74 -1257
-163 -286 -73 -437 -124 -756 -253 -161 -65 -457 -212 -537 -266 -30 -21 -109
-73 -175 -116 -425 -276 -767 -604 -1122 -1074 -56 -74 -121 -160 -144 -190
-24 -30 -126 -165 -227 -299 -101 -134 -250 -328 -331 -430 -80 -102 -179
-229 -219 -281 -68 -89 -129 -168 -332 -424 -47 -59 -110 -141 -140 -180 -30
-40 -76 -100 -101 -132 -94 -122 -162 -228 -223 -352 -171 -342 -233 -592
-201 -805 27 -183 91 -311 219 -445 158 -164 356 -262 721 -357 209 -54 509
-107 730 -130 141 -15 452 -18 2685 -27 3567 -13 5753 -16 5910 -7 158 10 190
6 190 -22 0 -20 5 -20 128 -14 70 3 496 6 947 7 877 2 921 0 1125 -48 73 -17
139 -42 220 -82 182 -91 276 -179 346 -321 37 -74 38 -79 41 -206 2 -71 0
-164 -5 -205 -9 -69 -10 -62 -11 91 -1 175 -9 218 -56 322 -14 30 -32 61 -40
67 -8 7 -15 19 -15 27 0 7 -7 16 -15 19 -8 3 -36 27 -63 52 -104 99 -168 137
-315 188 -100 35 -146 42 -357 53 -102 6 -207 16 -235 22 -55 13 -392 6 -505
-10 -108 -16 -308 -22 -640 -19 -525 3 -546 3 -577 -18 -16 -10 -39 -18 -52
-19 -25 -1 -101 -78 -101 -102 0 -7 -5 -13 -10 -13 -6 0 -16 -12 -23 -27 -12
-27 -88 -113 -99 -113 -3 0 -120 -114 -259 -253 -216 -214 -411 -401 -619
-591 -25 -22 -57 -47 -71 -55 -15 -7 -47 -32 -72 -55 -67 -61 -83 -74 -187
-152 -52 -40 -107 -83 -122 -97 -16 -14 -47 -40 -70 -57 -69 -49 -121 -89
-153 -118 -17 -15 -50 -38 -75 -51 -63 -35 -191 -128 -220 -161 -3 -3 -49 -39
-103 -80 -108 -82 -240 -169 -387 -256 -52 -31 -127 -78 -167 -105 -39 -27
-76 -49 -81 -49 -6 0 -12 -4 -14 -9 -3 -9 -66 -42 -463 -245 -110 -57 -239
-128 -287 -159 -47 -31 -89 -57 -92 -57 -4 0 -20 -9 -35 -21 -16 -12 -46 -23
-67 -25 -22 -2 -1749 -6 -3839 -9 -2090 -2 -3834 -7 -3875 -10 -100 -6 -198
-38 -440 -143 -213 -91 -633 -309 -840 -435 -214 -130 -519 -338 -742 -505
-350 -263 -758 -600 -758 -627 0 -3 12 -5 28 -6 26 0 26 -1 -8 -16 -19 -8 -50
-23 -69 -32 -35 -16 -203 -161 -276 -238 -45 -48 -38 -40 -129 -125 -93 -85
-113 -105 -171 -173 -28 -32 -67 -74 -87 -94 -21 -20 -38 -41 -38 -46 0 -6
-11 -19 -25 -29 -14 -10 -25 -26 -25 -36 0 -19 -30 -50 -48 -50 -7 0 -12 -8
-12 -18 0 -22 -32 -62 -49 -62 -6 0 -11 -9 -11 -19 0 -29 -11 -51 -24 -51 -7
0 -18 -16 -26 -35 -8 -19 -20 -35 -27 -35 -7 0 -13 -4 -13 -10 0 -5 -7 -10
-15 -10 -9 0 -15 -9 -15 -21 0 -12 -11 -34 -25 -48 -78 -83 -95 -103 -95 -111
0 -4 -13 -22 -30 -38 -16 -17 -30 -34 -30 -39 0 -4 -14 -17 -30 -28 -16 -11
-30 -26 -30 -32 0 -7 -7 -13 -15 -13 -8 0 -15 -4 -15 -10 0 -5 -6 -10 -14 -10
-7 0 -16 -13 -19 -28 -4 -17 -16 -33 -31 -40 -17 -7 -26 -20 -26 -34 -1 -26
-22 -58 -39 -58 -6 0 -11 -7 -11 -15 0 -9 -10 -26 -23 -38 -13 -12 -33 -39
-46 -59 -12 -21 -26 -38 -30 -38 -4 0 -15 -13 -24 -30 -10 -16 -29 -33 -43
-36 -17 -4 -24 -13 -24 -29 0 -26 -24 -55 -46 -55 -8 0 -14 -10 -14 -25 0 -14
-7 -28 -15 -31 -8 -4 -15 -12 -15 -20 0 -8 -7 -14 -15 -14 -10 0 -15 -10 -15
-34 0 -19 -6 -41 -12 -48 -19 -20 -48 -77 -48 -93 0 -8 -8 -20 -18 -27 -17
-13 -52 -76 -52 -95 0 -5 -11 -16 -25 -23 -14 -7 -25 -21 -25 -30 0 -22 -38
-100 -49 -100 -5 0 -12 -13 -16 -30 -4 -16 -11 -32 -16 -35 -5 -4 -9 -14 -9
-24 0 -10 -7 -24 -15 -31 -8 -7 -15 -23 -15 -36 0 -12 -6 -29 -13 -36 -8 -7
-17 -37 -21 -66 -4 -29 -16 -87 -28 -130 -12 -42 -22 -109 -24 -149 l-3 -72
30 -6 c66 -15 1839 -23 5314 -24 2013 0 3665 2 3670 7 15 10 49 66 36 58 -6
-4 -11 -5 -11 -2 0 3 10 10 21 17 17 9 20 8 14 -3 -3 -7 1 -4 9 6 9 11 16 16
16 10 0 -5 4 -4 8 2 8 12 116 57 178 73 23 6 66 13 95 15 30 2 61 7 69 9 8 3
29 6 45 5 17 0 53 3 80 5 28 3 75 8 105 11 58 5 135 12 210 20 124 13 371 69
488 110 24 9 40 11 37 6 -11 -18 11 -10 46 15 37 27 116 66 127 63 4 -1 44 16
89 39 55 28 101 44 140 48 32 3 67 11 77 17 11 6 86 14 166 19 81 4 157 12
171 18 72 30 956 89 1019 67 8 -3 40 -7 70 -10 53 -5 146 -32 186 -54 25 -15
214 -93 234 -98 8 -1 44 -12 80 -23 128 -41 203 -44 830 -37 651 8 633 7 805
30 394 53 702 155 948 313 93 60 218 118 287 133 30 7 186 16 345 20 370 11
408 20 678 158 147 76 263 118 349 127 29 3 71 8 93 10 147 16 430 16 675 -1
163 -11 435 -19 707 -21 487 -5 582 2 908 66 238 46 347 60 550 71 381 20 517
9 767 -61 292 -81 486 -128 573 -140 174 -22 789 -1 1170 42 328 36 404 58
710 202 382 180 547 223 1085 282 364 40 564 87 832 194 121 48 188 70 238 77
90 14 166 15 220 5 50 -10 64 -10 77 1 9 7 -27 -72 -81 -175 -54 -104 -96
-191 -93 -193 13 -14 233 429 221 447 -9 15 17 70 29 62 6 -4 8 0 4 11 -4 9
-1 27 7 39 8 12 17 38 21 57 4 19 11 42 16 50 6 10 7 5 4 -15 -5 -25 -4 -27 5
-12 6 9 8 27 5 38 -4 12 0 38 8 58 53 128 77 201 77 238 0 23 5 45 10 48 6 3
10 17 10 31 0 14 6 24 14 24 16 0 26 43 26 112 0 27 7 59 15 72 16 24 65 211
65 247 0 11 -7 19 -17 19 -15 0 -15 2 0 18 23 25 50 113 102 327 75 310 415
1650 475 1870 19 71 64 241 100 380 21 83 60 231 86 330 26 99 52 205 59 235
7 30 34 136 60 235 124 473 288 1131 313 1260 26 129 39 525 23 695 -9 100
-38 258 -57 316 -35 108 -134 295 -207 389 -117 151 -320 322 -487 409 -156
82 -243 124 -285 139 -22 8 -68 27 -103 42 -35 14 -91 32 -125 40 -34 7 -134
31 -222 53 -88 22 -194 45 -235 52 -41 6 -122 20 -180 31 -285 52 -506 72
-790 74 -1322 10 -2079 12 -2150 6 -63 -5 -93 -12 -115 -28 -25 -18 -37 -20
-70 -13 l-40 8 40 1 c51 1 95 29 117 72 61 119 123 303 132 389 9 86 25 168
41 205 7 17 15 71 17 122 4 107 3 108 -93 92 -129 -21 -259 -94 -434 -243
-215 -184 -317 -246 -465 -284 -121 -32 -178 -38 -755 -87 -159 -14 -333 -30
-385 -35 -52 -6 -115 -13 -140 -15 -25 -2 -88 -9 -140 -14 -52 -6 -131 -13
-175 -16 -260 -20 -364 -38 -432 -77 -56 -32 -74 -49 -90 -85 l-13 -33 -263
-2 c-144 -1 -377 -3 -517 -6 -140 -3 -334 -5 -430 -4 l-174 0 -24 28 -24 28
-632 3 c-2400 11 -2417 12 -2713 74 -320 68 -493 247 -494 513 -1 209 92 398
318 652 129 144 204 212 321 292 231 158 446 250 705 301 317 64 578 73 1992
72 638 0 1172 2 1186 5 26 5 26 7 33 117 4 62 11 418 17 792 6 374 13 727 17
783 6 83 4 106 -7 115 -15 13 -1185 16 -2301 8 -405 -3 -551 -1 -567 7 -16 9
-150 11 -500 10 -263 -1 -1128 -5 -1923 -9z m6857 -3775 c-3 -3 -12 -4 -19 -1
-8 3 -5 6 6 6 11 1 17 -2 13 -5z m186 -1 c-7 -2 -19 -2 -25 0 -7 3 -2 5 12 5
14 0 19 -2 13 -5z m90 0 c-7 -2 -21 -2 -30 0 -10 3 -4 5 12 5 17 0 24 -2 18
-5z m305 0 c-16 -2 -40 -2 -55 0 -16 2 -3 4 27 4 30 0 43 -2 28 -4z m110 0
c-10 -2 -26 -2 -35 0 -10 3 -2 5 17 5 19 0 27 -2 18 -5z m160 0 c-21 -2 -57
-2 -80 0 -24 2 -7 4 37 4 44 0 63 -2 43 -4z m-1878 -3378 c-12 -36 -17 -46
-14 -25 7 48 27 107 30 95 2 -5 -5 -37 -16 -70z m-44 -132 c-22 -62 -87 -215
-113 -268 -74 -149 -260 -412 -678 -957 -41 -53 -274 -329 -296 -350 -9 -10
-24 -27 -33 -39 -9 -13 -18 -20 -21 -17 -6 5 55 79 106 128 14 14 30 32 35 41
9 16 62 80 123 148 17 19 31 38 31 42 0 4 16 24 35 45 19 22 35 43 35 47 0 9
17 31 43 55 9 9 17 23 17 32 0 8 10 20 22 25 12 6 26 19 32 29 6 11 21 31 34
45 20 22 45 63 87 142 5 11 15 19 22 19 7 0 13 5 13 10 0 6 5 16 10 23 50 59
65 79 96 124 19 29 41 59 49 67 23 23 85 105 85 113 0 3 7 14 15 23 27 30 79
122 124 220 24 52 54 115 66 140 12 25 28 63 35 85 11 36 27 65 36 65 2 0 -3
-17 -10 -37z m-1178 -1683 c-7 -11 -15 -15 -17 -9 -2 6 3 15 10 20 20 12 21
11 7 -11z m-48 -54 c0 -2 -8 -10 -17 -17 -16 -13 -17 -12 -4 4 13 16 21 21 21
13z m-60 -69 c0 -2 -17 -19 -37 -38 -34 -30 -35 -31 -13 -4 29 35 50 52 50 42z
m-179 -194 c-154 -164 -349 -364 -320 -329 27 32 22 27 224 240 150 159 197
206 204 206 2 0 -47 -53 -108 -117z m-396 -413 c-3 -5 -11 -10 -16 -10 -6 0
-7 5 -4 10 3 6 11 10 16 10 6 0 7 -4 4 -10z m-6605 -20 c-8 -5 -22 -9 -30 -9
-10 0 -8 3 5 9 27 12 43 12 25 0z m6539 -36 c-13 -15 -71 -67 -129 -117 -113
-96 -67 -47 65 71 84 75 104 89 64 46z m-255 -225 c-37 -41 -326 -282 -542
-452 -48 -37 -100 -81 -116 -97 -39 -38 -30 -60 26 -61 l43 -1 -40 -8 c-43 -8
-75 2 -75 24 0 15 90 101 174 166 33 25 98 80 145 122 47 43 89 78 93 78 7 0
44 29 74 58 7 6 16 12 21 12 4 0 53 41 108 90 101 90 124 108 89 69z m-8837
-445 c-3 -3 -12 -4 -19 -1 -8 3 -5 6 6 6 11 1 17 -2 13 -5z m-60 -10 c-3 -3
-12 -4 -19 -1 -8 3 -5 6 6 6 11 1 17 -2 13 -5z m-54 -11 c-7 -2 -19 -2 -25 0
-7 3 -2 5 12 5 14 0 19 -2 13 -5z m-76 -9 c-3 -3 -12 -4 -19 -1 -8 3 -5 6 6 6
11 1 17 -2 13 -5z m-230 -30 c-3 -3 -12 -4 -19 -1 -8 3 -5 6 6 6 11 1 17 -2
13 -5z m-70 -10 c-3 -3 -12 -4 -19 -1 -8 3 -5 6 6 6 11 1 17 -2 13 -5z m-147
-24 c0 -5 -9 -10 -21 -10 -11 0 -17 5 -14 10 3 6 13 10 21 10 8 0 14 -4 14
-10z m-227 -27 c-7 -2 -19 -2 -25 0 -7 3 -2 5 12 5 14 0 19 -2 13 -5z m-66 -9
c-3 -3 -12 -4 -19 -1 -8 3 -5 6 6 6 11 1 17 -2 13 -5z m-54 -11 c-7 -2 -19 -2
-25 0 -7 3 -2 5 12 5 14 0 19 -2 13 -5z m-76 -9 c-3 -3 -12 -4 -19 -1 -8 3 -5
6 6 6 11 1 17 -2 13 -5z m10049 -24 c-336 -3 -630 -3 -655 1 -25 3 249 6 609
6 l655 -1 -609 -6z m7762 3 c-10 -2 -26 -2 -35 0 -10 3 -2 5 17 5 19 0 27 -2
18 -5z m130 0 c-15 -2 -42 -2 -60 0 -18 2 -6 4 27 4 33 0 48 -2 33 -4z m720
-30 c-10 -2 -28 -2 -40 0 -13 2 -5 4 17 4 22 1 32 -1 23 -4z m-23200 -70 c-10
-2 -26 -2 -35 0 -10 3 -2 5 17 5 19 0 27 -2 18 -5z m85 -10 c-13 -2 -33 -2
-45 0 -13 2 -3 4 22 4 25 0 35 -2 23 -4z m187 -13 l65 -7 -60 -1 c-33 0 -82 3
-110 8 l-50 7 45 0 c25 1 74 -3 110 -7z m153 -17 c-13 -2 -35 -2 -50 0 -16 2
-5 4 22 4 28 0 40 -2 28 -4z m115 -10 c-16 -2 -40 -2 -55 0 -16 2 -3 4 27 4
30 0 43 -2 28 -4z m185 -10 c-7 -2 -21 -2 -30 0 -10 3 -4 5 12 5 17 0 24 -2
18 -5z m675 -30 c-16 -2 -40 -2 -55 0 -16 2 -3 4 27 4 30 0 43 -2 28 -4z
m1350 0 c-10 -2 -28 -2 -40 0 -13 2 -5 4 17 4 22 1 32 -1 23 -4z m20365 -978
c-3 -9 -8 -14 -10 -11 -3 3 -2 9 2 15 9 16 15 13 8 -4z"/>
<path d="M32464 14008 c-15 -24 -35 -54 -44 -68 -26 -39 -53 -93 -42 -86 5 3
29 38 52 78 24 40 50 83 58 96 8 12 12 22 8 22 -3 0 -18 -19 -32 -42z"/>
</g>
</svg>
